<svg xmlns="http://www.w3.org/2000/svg" xmlns:xlink="http://www.w3.org/1999/xlink" id="body_1" preserveAspectRatio="xMinYMin meet" viewBox="0 0 793 1123"><defs><clipPath id="1"><path clip-rule="evenodd" d="M0 842L0 0L0 0L595 0L595 0L595 842L595 842L0 842z" /></clipPath><clipPath id="2"><path clip-rule="evenodd" d="M89.76 49.09003L316.56 49.09003L316.56 49.09003L316.56 35.41003L316.56 35.41003L89.76 35.41003z" /></clipPath><clipPath id="3"><path clip-rule="evenodd" d="M316.44 49.09003L322.68 49.09003L322.68 49.09003L322.68 35.41003L322.68 35.41003L316.44 35.41003z" /></clipPath><clipPath id="4"><path clip-rule="evenodd" d="M322.56 49.09003L400.32 49.09003L400.32 49.09003L400.32 35.41003L400.32 35.41003L322.56 35.41003z" /></clipPath><clipPath id="5"><path clip-rule="evenodd" d="M90 90.37L242.88 90.37L242.88 90.37L242.88 72.25L242.88 72.25L90 72.25z" /></clipPath><clipPath id="6"><path clip-rule="evenodd" d="M90 117.85L173.04 117.85L173.04 117.85L173.04 104.17L173.04 104.17L90 104.17z" /></clipPath><clipPath id="7"><path clip-rule="evenodd" d="M90 145.45L478.2 145.45L478.2 145.45L478.2 131.77L478.2 131.77L90 131.77z" /></clipPath><clipPath id="8"><path clip-rule="evenodd" d="M90 159.25L500.88 159.25L500.88 159.25L500.88 145.57L500.88 145.57L90 145.57z" /></clipPath><clipPath id="9"><path clip-rule="evenodd" d="M90 173.05L329.88 173.05L329.88 173.05L329.88 159.37L329.88 159.37L90 159.37z" /></clipPath><clipPath id="10"><path clip-rule="evenodd" d="M329.88 173.05L463.92 173.05L463.92 173.05L463.92 159.37L463.92 159.37L329.88 159.37z" /></clipPath><clipPath id="11"><path clip-rule="evenodd" d="M90 186.85L494.52 186.85L494.52 186.85L494.52 173.17L494.52 173.17L90 173.17z" /></clipPath><clipPath id="12"><path clip-rule="evenodd" d="M90 200.65L402.6 200.65L402.6 200.65L402.6 186.97L402.6 186.97L90 186.97z" /></clipPath><clipPath id="13"><path clip-rule="evenodd" d="M90 228.25L191.64 228.25L191.64 228.25L191.64 214.57L191.64 214.57L90 214.57z" /></clipPath><clipPath id="14"><path clip-rule="evenodd" d="M90 255.85L378.6 255.85L378.6 255.85L378.6 242.17L378.6 242.17L90 242.17z" /></clipPath><clipPath id="15"><path clip-rule="evenodd" d="M378.6 255.85L489.96 255.85L489.96 255.85L489.96 242.17L489.96 242.17L378.6 242.17z" /></clipPath><clipPath id="16"><path clip-rule="evenodd" d="M90 269.65L501.6 269.65L501.6 269.65L501.6 255.97L501.6 255.97L90 255.97z" /></clipPath><clipPath id="17"><path clip-rule="evenodd" d="M90 297L196.56 297L196.56 297L196.56 283.32L196.56 283.32L90 283.32z" /></clipPath><clipPath id="18"><path clip-rule="evenodd" d="M196.56 297.25L485.88 297.25L485.88 297.25L485.88 283.57L485.88 283.57L196.56 283.57z" /></clipPath><clipPath id="19"><path clip-rule="evenodd" d="M90 311.05L413.28 311.05L413.28 311.05L413.28 297.37L413.28 297.37L90 297.37z" /></clipPath><clipPath id="20"><path clip-rule="evenodd" d="M413.28 311.05L496.44 311.05L496.44 311.05L496.44 297.37L496.44 297.37L413.28 297.37z" /></clipPath><clipPath id="21"><path clip-rule="evenodd" d="M90 324.85L427.2 324.85L427.2 324.85L427.2 311.17L427.2 311.17L90 311.17z" /></clipPath><clipPath id="22"><path clip-rule="evenodd" d="M90 352.21L196.56 352.21L196.56 352.21L196.56 338.53L196.56 338.53L90 338.53z" /></clipPath><clipPath id="23"><path clip-rule="evenodd" d="M196.56 352.45L496.32 352.45L496.32 352.45L496.32 338.77L496.32 338.77L196.56 338.77z" /></clipPath><clipPath id="24"><path clip-rule="evenodd" d="M90 366.25L230.88 366.25L230.88 366.25L230.88 352.57L230.88 352.57L90 352.57z" /></clipPath><clipPath id="25"><path clip-rule="evenodd" d="M230.88 366.25L234.96 366.25L234.96 366.25L234.96 352.57L234.96 352.57L230.88 352.57z" /></clipPath><clipPath id="26"><path clip-rule="evenodd" d="M234.96 366.25L471.48 366.25L471.48 366.25L471.48 352.57L471.48 352.57L234.96 352.57z" /></clipPath><clipPath id="27"><path clip-rule="evenodd" d="M90 380.05L165.96 380.05L165.96 380.05L165.96 366.37L165.96 366.37L90 366.37z" /></clipPath><clipPath id="28"><path clip-rule="evenodd" d="M165.96 380.05L488.64 380.05L488.64 380.05L488.64 366.37L488.64 366.37L165.96 366.37z" /></clipPath><clipPath id="29"><path clip-rule="evenodd" d="M120.12 414.25L183.48 414.25L183.48 414.25L183.48 400.57L183.48 400.57L120.12 400.57z" /></clipPath><clipPath id="30"><path clip-rule="evenodd" d="M90 434.65L211.32 434.65L211.32 434.65L211.32 420.97L211.32 420.97L90 420.97z" /></clipPath><clipPath id="31"><path clip-rule="evenodd" d="M90 448.45L208.68 448.45L208.68 448.45L208.68 434.77L208.68 434.77L90 434.77z" /></clipPath><clipPath id="32"><path clip-rule="evenodd" d="M90 462.25L182.64 462.25L182.64 462.25L182.64 448.57L182.64 448.57L90 448.57z" /></clipPath><clipPath id="33"><path clip-rule="evenodd" d="M224.4 433.57L422.64 433.57L422.64 433.57L422.64 421.09L422.64 421.09L224.4 421.09z" /></clipPath><clipPath id="34"><path clip-rule="evenodd" d="M224.4 446.29L435.48 446.29L435.48 446.29L435.48 433.81L435.48 433.81L224.4 433.81z" /></clipPath><clipPath id="35"><path clip-rule="evenodd" d="M224.4 458.89L316.2 458.89L316.2 458.89L316.2 446.41L316.2 446.41L224.4 446.41z" /></clipPath><clipPath id="36"><path clip-rule="evenodd" d="M316.2 458.89L425.64 458.89L425.64 458.89L425.64 446.41L425.64 446.41L316.2 446.41z" /></clipPath><clipPath id="37"><path clip-rule="evenodd" d="M90 485.77L186 485.77L186 485.77L186 472.09L186 472.09L90 472.09z" /></clipPath><clipPath id="38"><path clip-rule="evenodd" d="M90 499.57L189 499.57L189 499.57L189 485.89L189 485.89L90 485.89z" /></clipPath><clipPath id="39"><path clip-rule="evenodd" d="M90 513.37L135.36 513.37L135.36 513.37L135.36 499.69L135.36 499.69L90 499.69z" /></clipPath><clipPath id="40"><path clip-rule="evenodd" d="M224.4 484.69L430.92 484.69L430.92 484.69L430.92 472.21L430.92 472.21L224.4 472.21z" /></clipPath><clipPath id="41"><path clip-rule="evenodd" d="M224.4 497.29L443.76 497.29L443.76 497.29L443.76 484.81L443.76 484.81L224.4 484.81z" /></clipPath><clipPath id="42"><path clip-rule="evenodd" d="M224.4 510L433.92 510L433.92 510L433.92 497.52L433.92 497.52L224.4 497.52z" /></clipPath><clipPath id="43"><path clip-rule="evenodd" d="M90 536.89L182.28 536.89L182.28 536.89L182.28 523.21L182.28 523.21L90 523.21z" /></clipPath><clipPath id="44"><path clip-rule="evenodd" d="M90 550.69L206.04 550.69L206.04 550.69L206.04 537.01L206.04 537.01L90 537.01z" /></clipPath><clipPath id="45"><path clip-rule="evenodd" d="M90 564.49L100.08 564.49L100.08 564.49L100.08 550.81L100.08 550.81L90 550.81z" /></clipPath><clipPath id="46"><path clip-rule="evenodd" d="M100.08 564.49L208.68 564.49L208.68 564.49L208.68 550.81L208.68 550.81L100.08 550.81z" /></clipPath><clipPath id="47"><path clip-rule="evenodd" d="M90 578.29L188.64 578.29L188.64 578.29L188.64 564.61L188.64 564.61L90 564.61z" /></clipPath><clipPath id="48"><path clip-rule="evenodd" d="M224.4 535.81L430.92 535.81L430.92 535.81L430.92 523.33L430.92 523.33L224.4 523.33z" /></clipPath><clipPath id="49"><path clip-rule="evenodd" d="M224.4 548.41L489.96 548.41L489.96 548.41L489.96 535.93L489.96 535.93L224.4 535.93z" /></clipPath><clipPath id="50"><path clip-rule="evenodd" d="M224.4 561.13L260.4 561.13L260.4 561.13L260.4 548.65L260.4 548.65L224.4 548.65z" /></clipPath><clipPath id="51"><path clip-rule="evenodd" d="M224.4 573.73L488.64 573.73L488.64 573.73L488.64 561.25L488.64 561.25L224.4 561.25z" /></clipPath><clipPath id="52"><path clip-rule="evenodd" d="M224.4 586.33L304.08 586.33L304.08 586.33L304.08 573.85L304.08 573.85L224.4 573.85z" /></clipPath><clipPath id="53"><path clip-rule="evenodd" d="M90 613.21L142.92 613.21L142.92 613.21L142.92 599.53L142.92 599.53L90 599.53z" /></clipPath><clipPath id="54"><path clip-rule="evenodd" d="M145.92 613.21L201.24 613.21L201.24 613.21L201.24 599.53L201.24 599.53L145.92 599.53z" /></clipPath><clipPath id="55"><path clip-rule="evenodd" d="M201.24 613.21L210.6 613.21L210.6 613.21L210.6 599.53L210.6 599.53L201.24 599.53z" /></clipPath><clipPath id="56"><path clip-rule="evenodd" d="M210.6 613.21L214.56 613.21L214.56 613.21L214.56 599.53L214.56 599.53L210.6 599.53z" /></clipPath><clipPath id="57"><path clip-rule="evenodd" d="M214.56 613.21L350.88 613.21L350.88 613.21L350.88 599.53L350.88 599.53L214.56 599.53z" /></clipPath><clipPath id="58"><path clip-rule="evenodd" d="M90 627L269.64 627L269.64 627L269.64 613.32L269.64 613.32L90 613.32z" /></clipPath><clipPath id="59"><path clip-rule="evenodd" d="M90 654.61L496.2 654.61L496.2 654.61L496.2 640.93L496.2 640.93L90 640.93z" /></clipPath><clipPath id="60"><path clip-rule="evenodd" d="M90 668.41L480.96 668.41L480.96 668.41L480.96 654.73L480.96 654.73L90 654.73z" /></clipPath><clipPath id="61"><path clip-rule="evenodd" d="M90 682.21L192 682.21L192 682.21L192 668.53L192 668.53L90 668.53z" /></clipPath><clipPath id="62"><path clip-rule="evenodd" d="M198 682.21L212.64 682.21L212.64 682.21L212.64 668.53L212.64 668.53L198 668.53z" /></clipPath><clipPath id="63"><path clip-rule="evenodd" d="M215.64 682.21L506.88 682.21L506.88 682.21L506.88 668.53L506.88 668.53L215.64 668.53z" /></clipPath><clipPath id="64"><path clip-rule="evenodd" d="M90 696L120.36 696L120.36 696L120.36 682.32L120.36 682.32L90 682.32z" /></clipPath><clipPath id="65"><path clip-rule="evenodd" d="M126.36 709.09L130.92 709.09L130.92 709.09L130.92 696.97L130.92 696.97L126.36 696.97z" /></clipPath><clipPath id="66"><path clip-rule="evenodd" d="M144.36 709.81L468.6 709.81L468.6 709.81L468.6 696.13L468.6 696.13L144.36 696.13z" /></clipPath><clipPath id="67"><path clip-rule="evenodd" d="M126.36 722.89L130.92 722.89L130.92 722.89L130.92 710.77L130.92 710.77L126.36 710.77z" /></clipPath><clipPath id="68"><path clip-rule="evenodd" d="M144.36 723.61L507.6 723.61L507.6 723.61L507.6 709.93L507.6 709.93L144.36 709.93z" /></clipPath><clipPath id="69"><path clip-rule="evenodd" d="M144.36 737.41L330.48 737.41L330.48 737.41L330.48 723.73L330.48 723.73L144.36 723.73z" /></clipPath><clipPath id="70"><path clip-rule="evenodd" d="M330.48 737.41L500.16 737.41L500.16 737.41L500.16 723.73L500.16 723.73L330.48 723.73z" /></clipPath><clipPath id="71"><path clip-rule="evenodd" d="M144.36 751.21L418.68 751.21L418.68 751.21L418.68 737.53L418.68 737.53L144.36 737.53z" /></clipPath></defs><g transform="matrix(1.333333 0 0 1.333333 0 0)"><g clip-path="url(#1)"><g clip-path="url(#2)"></g><g clip-path="url(#3)"></g><g clip-path="url(#4)"></g><g clip-path="url(#5)"></g><path transform="matrix(1 0 0 -1 0 842)" d="M90 753.43L238.92 753.43L238.92 751.88L90 751.88z" stroke="none" fill="#000000" fill-rule="nonzero" /><g clip-path="url(#6)"></g><g clip-path="url(#7)"></g><g clip-path="url(#8)"></g><g clip-path="url(#9)"></g><g clip-path="url(#10)"></g><g clip-path="url(#11)"></g><g clip-path="url(#12)"></g><g clip-path="url(#13)"></g><g clip-path="url(#14)"></g><g clip-path="url(#15)"></g><g clip-path="url(#16)"></g><g clip-path="url(#17)"></g><g clip-path="url(#18)"></g><g clip-path="url(#19)"></g><g clip-path="url(#20)"></g><g clip-path="url(#21)"></g><g clip-path="url(#22)"></g><g clip-path="url(#23)"></g><g clip-path="url(#24)"></g><g clip-path="url(#25)"></g><g clip-path="url(#26)"></g><g clip-path="url(#27)"></g><g clip-path="url(#28)"></g><g clip-path="url(#29)"></g><path transform="matrix(1 0 0 -1 0 842)" d="M84.36 448.03L84.84 448.03L84.84 447.55L84.36 447.55z" stroke="none" fill="#000000" fill-rule="nonzero" /><path transform="matrix(1 0 0 -1 0 842)" d="M84.36 448.03L84.84 448.03L84.84 447.55L84.36 447.55z" stroke="none" fill="#000000" fill-rule="nonzero" /><path transform="matrix(1 0 0 -1 0 842)" d="M84.84 448.03L218.75 448.03L218.75 447.55L84.84 447.55z" stroke="none" fill="#000000" fill-rule="nonzero" /><path transform="matrix(1 0 0 -1 0 842)" d="M218.76 448.03L219.24 448.03L219.24 447.55L218.76 447.55z" stroke="none" fill="#000000" fill-rule="nonzero" /><path transform="matrix(1 0 0 -1 0 842)" d="M219.24 448.03L510.47 448.03L510.47 447.55L219.24 447.55z" stroke="none" fill="#000000" fill-rule="nonzero" /><path transform="matrix(1 0 0 -1 0 842)" d="M510.48 448.03L510.96 448.03L510.96 447.55L510.48 447.55z" stroke="none" fill="#000000" fill-rule="nonzero" /><path transform="matrix(1 0 0 -1 0 842)" d="M510.48 448.03L510.96 448.03L510.96 447.55L510.48 447.55z" stroke="none" fill="#000000" fill-rule="nonzero" /><path transform="matrix(1 0 0 -1 0 842)" d="M84.36 447.55L84.84 447.55L84.84 421.52L84.36 421.52z" stroke="none" fill="#000000" fill-rule="nonzero" /><path transform="matrix(1 0 0 -1 0 842)" d="M218.76 447.55L219.24 447.55L219.24 421.52L218.76 421.52z" stroke="none" fill="#000000" fill-rule="nonzero" /><path transform="matrix(1 0 0 -1 0 842)" d="M510.48 447.55L510.96 447.55L510.96 421.52L510.48 421.52z" stroke="none" fill="#000000" fill-rule="nonzero" /><g clip-path="url(#30)"></g><g clip-path="url(#31)"></g><g clip-path="url(#32)"></g><g clip-path="url(#33)"></g><g clip-path="url(#34)"></g><g clip-path="url(#35)"></g><g clip-path="url(#36)"></g><path transform="matrix(1 0 0 -1 0 842)" d="M84.36 421.51L84.84 421.51L84.84 421.03L84.36 421.03z" stroke="none" fill="#000000" fill-rule="nonzero" /><path transform="matrix(1 0 0 -1 0 842)" d="M84.84 421.51L218.75 421.51L218.75 421.03L84.84 421.03z" stroke="none" fill="#000000" fill-rule="nonzero" /><path transform="matrix(1 0 0 -1 0 842)" d="M218.76 421.51L219.24 421.51L219.24 421.03L218.76 421.03z" stroke="none" fill="#000000" fill-rule="nonzero" /><path transform="matrix(1 0 0 -1 0 842)" d="M219.24 421.51L510.47 421.51L510.47 421.03L219.24 421.03z" stroke="none" fill="#000000" fill-rule="nonzero" /><path transform="matrix(1 0 0 -1 0 842)" d="M510.48 421.51L510.96 421.51L510.96 421.03L510.48 421.03z" stroke="none" fill="#000000" fill-rule="nonzero" /><path transform="matrix(1 0 0 -1 0 842)" d="M84.36 421.03L84.84 421.03L84.84 370.39L84.36 370.39z" stroke="none" fill="#000000" fill-rule="nonzero" /><path transform="matrix(1 0 0 -1 0 842)" d="M218.76 421.03L219.24 421.03L219.24 370.39L218.76 370.39z" stroke="none" fill="#000000" fill-rule="nonzero" /><path transform="matrix(1 0 0 -1 0 842)" d="M510.48 421.03L510.96 421.03L510.96 370.39L510.48 370.39z" stroke="none" fill="#000000" fill-rule="nonzero" /><g clip-path="url(#37)"></g><g clip-path="url(#38)"></g><g clip-path="url(#39)"></g><g clip-path="url(#40)"></g><g clip-path="url(#41)"></g><g clip-path="url(#42)"></g><path transform="matrix(1 0 0 -1 0 842)" d="M84.36 370.39L84.84 370.39L84.84 369.91L84.36 369.91z" stroke="none" fill="#000000" fill-rule="nonzero" /><path transform="matrix(1 0 0 -1 0 842)" d="M84.84 370.39L218.75 370.39L218.75 369.91L84.84 369.91z" stroke="none" fill="#000000" fill-rule="nonzero" /><path transform="matrix(1 0 0 -1 0 842)" d="M218.76 370.39L219.24 370.39L219.24 369.91L218.76 369.91z" stroke="none" fill="#000000" fill-rule="nonzero" /><path transform="matrix(1 0 0 -1 0 842)" d="M219.24 370.39L510.47 370.39L510.47 369.91L219.24 369.91z" stroke="none" fill="#000000" fill-rule="nonzero" /><path transform="matrix(1 0 0 -1 0 842)" d="M510.48 370.39L510.96 370.39L510.96 369.91L510.48 369.91z" stroke="none" fill="#000000" fill-rule="nonzero" /><path transform="matrix(1 0 0 -1 0 842)" d="M84.36 369.91L84.84 369.91L84.84 319.27L84.36 319.27z" stroke="none" fill="#000000" fill-rule="nonzero" /><path transform="matrix(1 0 0 -1 0 842)" d="M218.76 369.91L219.24 369.91L219.24 319.27L218.76 319.27z" stroke="none" fill="#000000" fill-rule="nonzero" /><path transform="matrix(1 0 0 -1 0 842)" d="M510.48 369.91L510.96 369.91L510.96 319.27L510.48 319.27z" stroke="none" fill="#000000" fill-rule="nonzero" /><g clip-path="url(#43)"></g><g clip-path="url(#44)"></g><g clip-path="url(#45)"></g><g clip-path="url(#46)"></g><g clip-path="url(#47)"></g><g clip-path="url(#48)"></g><g clip-path="url(#49)"></g><g clip-path="url(#50)"></g><g clip-path="url(#51)"></g><g clip-path="url(#52)"></g><path transform="matrix(1 0 0 -1 0 842)" d="M84.36 319.27L84.84 319.27L84.84 318.79L84.36 318.79z" stroke="none" fill="#000000" fill-rule="nonzero" /><path transform="matrix(1 0 0 -1 0 842)" d="M84.84 319.27L218.75 319.27L218.75 318.79L84.84 318.79z" stroke="none" fill="#000000" fill-rule="nonzero" /><path transform="matrix(1 0 0 -1 0 842)" d="M218.76 319.27L219.24 319.27L219.24 318.79L218.76 318.79z" stroke="none" fill="#000000" fill-rule="nonzero" /><path transform="matrix(1 0 0 -1 0 842)" d="M219.24 319.27L510.47 319.27L510.47 318.79L219.24 318.79z" stroke="none" fill="#000000" fill-rule="nonzero" /><path transform="matrix(1 0 0 -1 0 842)" d="M510.48 319.27L510.96 319.27L510.96 318.79L510.48 318.79z" stroke="none" fill="#000000" fill-rule="nonzero" /><path transform="matrix(1 0 0 -1 0 842)" d="M84.36 318.79L84.84 318.79L84.84 242.96L84.36 242.96z" stroke="none" fill="#000000" fill-rule="nonzero" /><path transform="matrix(1 0 0 -1 0 842)" d="M84.36 242.95L84.84 242.95L84.84 242.47L84.36 242.47z" stroke="none" fill="#000000" fill-rule="nonzero" /><path transform="matrix(1 0 0 -1 0 842)" d="M84.36 242.95L84.84 242.95L84.84 242.47L84.36 242.47z" stroke="none" fill="#000000" fill-rule="nonzero" /><path transform="matrix(1 0 0 -1 0 842)" d="M84.84 242.95L218.75 242.95L218.75 242.47L84.84 242.47z" stroke="none" fill="#000000" fill-rule="nonzero" /><path transform="matrix(1 0 0 -1 0 842)" d="M218.76 318.79L219.24 318.79L219.24 242.96L218.76 242.96z" stroke="none" fill="#000000" fill-rule="nonzero" /><path transform="matrix(1 0 0 -1 0 842)" d="M218.76 242.95L219.24 242.95L219.24 242.47L218.76 242.47z" stroke="none" fill="#000000" fill-rule="nonzero" /><path transform="matrix(1 0 0 -1 0 842)" d="M219.24 242.95L510.47 242.95L510.47 242.47L219.24 242.47z" stroke="none" fill="#000000" fill-rule="nonzero" /><path transform="matrix(1 0 0 -1 0 842)" d="M510.48 318.79L510.96 318.79L510.96 242.96L510.48 242.96z" stroke="none" fill="#000000" fill-rule="nonzero" /><path transform="matrix(1 0 0 -1 0 842)" d="M510.48 242.95L510.96 242.95L510.96 242.47L510.48 242.47z" stroke="none" fill="#000000" fill-rule="nonzero" /><path transform="matrix(1 0 0 -1 0 842)" d="M510.48 242.95L510.96 242.95L510.96 242.47L510.48 242.47z" stroke="none" fill="#000000" fill-rule="nonzero" /><g clip-path="url(#53)"></g><g clip-path="url(#54)"></g><g clip-path="url(#55)"></g><g clip-path="url(#56)"></g><g clip-path="url(#57)"></g><g clip-path="url(#58)"></g><g clip-path="url(#59)"></g><g clip-path="url(#60)"></g><g clip-path="url(#61)"></g><g clip-path="url(#62)"></g><g clip-path="url(#63)"></g><g clip-path="url(#64)"></g><g clip-path="url(#65)"></g><g clip-path="url(#66)"></g><g clip-path="url(#67)"></g><g clip-path="url(#68)"></g><g clip-path="url(#69)"></g><g clip-path="url(#70)"></g><g clip-path="url(#71)"></g></g></g></svg>